<svg width="204" height="43" viewBox="0 0 204 43" fill="none" xmlns="http://www.w3.org/2000/svg">
<path d="M69.0564 10.256H71.4356V30.6128H68.7372L68.766 15.8869L62.6739 27.35H60.6428L54.5216 16.0309L54.5507 30.6125H51.8525V10.2557H54.2606L61.6875 24.347L69.0564 10.256Z" fill="white"/>
<path d="M88.0011 24.0577H77.9919C78.2046 27.0421 79.6934 28.5333 82.4599 28.5333C84.0843 28.5333 85.5538 28.0039 86.8697 26.9454L87.7692 28.9953C87.1115 29.5539 86.2988 29.9964 85.3318 30.3234C84.3642 30.6504 83.378 30.8146 82.3726 30.8146C80.1092 30.8146 78.3257 30.1696 77.0197 28.8794C75.7142 27.5903 75.0615 25.8095 75.0615 23.5381C75.0615 22.0944 75.347 20.8143 75.9176 19.6979C76.4883 18.5814 77.2909 17.7152 78.3256 17.0989C79.3593 16.4829 80.5352 16.175 81.8503 16.175C83.7653 16.175 85.2689 16.7911 86.3619 18.0225C87.4546 19.2553 88.0011 20.9583 88.0011 23.1336V24.0577ZM79.2251 19.366C78.5573 20.0691 78.156 21.0747 78.0204 22.3832H85.477C85.4191 21.0747 85.085 20.0691 84.4759 19.366C83.8666 18.6636 83.011 18.3123 81.9082 18.3123C80.7864 18.3121 79.8918 18.6634 79.2251 19.366Z" fill="white"/>
<path d="M103.929 21.8634V30.6125H100.999V22.0081C100.999 20.8147 100.761 19.9389 100.288 19.3805C99.8137 18.8221 99.0743 18.5427 98.0686 18.5427C96.8886 18.5427 95.9403 18.909 95.2253 19.6408C94.5091 20.3724 94.1515 21.3539 94.1515 22.5854V30.6128H91.2217V16.522H94.0933V18.7741C94.558 17.9275 95.2055 17.2828 96.0377 16.8397C96.8688 16.3972 97.807 16.1757 98.8514 16.1757C102.236 16.1757 103.929 18.0715 103.929 21.8634Z" fill="white"/>
<path d="M115.939 28.4757L115.795 30.6988C115.311 30.7755 114.808 30.8149 114.286 30.8149C112.448 30.8149 111.08 30.3671 110.181 29.4722C109.281 28.5773 108.832 27.2822 108.832 25.5886V18.774H106.075V16.522H108.832V12.2775H111.762V16.522H115.649V18.774H111.762V25.473C111.762 27.533 112.719 28.5626 114.634 28.5626C115.078 28.5626 115.513 28.5334 115.939 28.4757Z" fill="white"/>
<path d="M120.654 29.9192C119.6 29.3229 118.788 28.4711 118.217 27.3642C117.647 26.2573 117.361 24.9723 117.361 23.5092C117.361 22.0273 117.647 20.733 118.217 19.6258C118.788 18.5189 119.6 17.6675 120.654 17.0706C121.708 16.474 122.932 16.1757 124.324 16.1757C125.717 16.1757 126.94 16.4742 127.994 17.0706C129.048 17.6677 129.86 18.5192 130.431 19.6258C131.002 20.733 131.287 22.0273 131.287 23.5092C131.287 24.9723 131.002 26.2576 130.431 27.3642C129.86 28.4711 129.048 29.3229 127.994 29.9192C126.94 30.5166 125.717 30.8147 124.324 30.8147C122.931 30.8149 121.708 30.5166 120.654 29.9192ZM127.297 27.2342C127.984 26.3871 128.328 25.1458 128.328 23.5092C128.328 21.8926 127.979 20.6557 127.284 19.799C126.587 18.9426 125.6 18.514 124.324 18.514C123.048 18.514 122.061 18.9426 121.364 19.799C120.668 20.6557 120.32 21.8926 120.32 23.5092C120.32 25.1458 120.664 26.3871 121.35 27.2342C122.036 28.0816 123.028 28.5047 124.324 28.5047C125.62 28.505 126.611 28.0816 127.297 27.2342Z" fill="white"/>
<path d="M143.152 18.6298L141.383 18.8033C139.991 18.9382 138.99 19.3614 138.381 20.0738C137.772 20.786 137.467 21.6907 137.467 22.7875V30.6128H134.537V16.522H137.38V18.9759C138.134 17.3211 139.672 16.4065 141.993 16.233L142.95 16.1757L143.152 18.6298Z" fill="white"/>
<path d="M145.503 30.6125V10.2557H158.791V12.6525H148.433V19.0628H158.211V21.4877H148.433V28.2157H158.791V30.6122H145.503V30.6125Z" fill="white"/>
<path d="M169.409 23.365L175.327 30.6125H171.817L167.697 25.4731L163.607 30.6125H160.097L166.015 23.365L160.416 16.5218H163.956L167.698 21.2859L171.47 16.5218H174.98L169.409 23.365Z" fill="white"/>
<path d="M189.195 24.0577H179.186C179.398 27.0421 180.888 28.5333 183.654 28.5333C185.278 28.5333 186.748 28.0039 188.064 26.9454L188.963 28.9953C188.305 29.5539 187.493 29.9964 186.526 30.3234C185.558 30.6504 184.571 30.8146 183.567 30.8146C181.304 30.8146 179.519 30.1696 178.213 28.8794C176.908 27.5903 176.256 25.8095 176.256 23.5381C176.256 22.0944 176.541 20.8143 177.112 19.6979C177.682 18.5814 178.485 17.7152 179.519 17.0989C180.553 16.4829 181.729 16.175 183.044 16.175C184.959 16.175 186.462 16.7911 187.555 18.0225C188.649 19.2553 189.195 20.9583 189.195 23.1336V24.0577H189.195ZM180.419 19.366C179.752 20.0691 179.35 21.0747 179.215 22.3832H186.672C186.613 21.0747 186.279 20.0691 185.67 19.366C185.061 18.6636 184.205 18.3123 183.103 18.3123C181.982 18.3121 181.086 18.6634 180.419 19.366Z" fill="white"/>
<path d="M194.896 29.9192C193.842 29.3228 193.029 28.4806 192.459 27.3926C191.889 26.3057 191.604 25.0302 191.604 23.5671C191.604 22.1045 191.898 20.8146 192.488 19.6982C193.078 18.5817 193.91 17.7155 194.984 17.0992C196.057 16.4832 197.309 16.1754 198.741 16.1754C199.727 16.1754 200.68 16.3393 201.598 16.6662C202.517 16.9935 203.266 17.436 203.846 17.9941L202.947 20.0735C201.671 19.0336 200.345 18.5137 198.973 18.5137C197.618 18.5137 196.56 18.9519 195.796 19.8277C195.031 20.704 194.649 21.9406 194.649 23.5382C194.649 25.1168 195.026 26.3341 195.781 27.1905C196.535 28.0474 197.599 28.4755 198.973 28.4755C200.345 28.4755 201.671 27.9559 202.947 26.9165L203.846 29.0243C203.227 29.5826 202.454 30.0202 201.525 30.3382C200.597 30.6556 199.629 30.8146 198.624 30.8146C197.193 30.8149 195.95 30.5166 194.896 29.9192Z" fill="white"/>
<path d="M30.9774 0H12.2279C5.4747 0 0 5.44835 0 12.1698V30.8302C0 37.5514 5.4747 43 12.2279 43H30.9774C37.7313 43 43.2058 37.5514 43.2058 30.8302V12.1696C43.2058 5.44835 37.7313 0 30.9774 0ZM38.3309 32.5165H26.3003V28.3707H38.3309V32.5165ZM38.3309 23.5731H26.3003V19.4266H38.3309V23.5731ZM38.3309 14.6288H26.9872L20.0938 21.4891L20.1081 21.5031L17.1625 24.434L17.1481 24.42L17.1345 24.434L14.1896 21.5031L14.2039 21.4894L9.04006 16.3508V32.5167H4.87489V10.483H9.04006V10.4888L17.1486 18.5582L25.262 10.4833L25.3062 10.5267V10.4833H38.3311V14.6288H38.3309Z" fill="white"/>
</svg>
