<svg width="37" height="32" viewBox="0 0 37 32" fill="none" xmlns="http://www.w3.org/2000/svg">
<path fill-rule="evenodd" clip-rule="evenodd" d="M6.15374 31.7172C2.38082 28.3978 0 23.5336 0 18.1133C0 8.10958 8.10958 0 18.1133 0C28.1169 0 36.2265 8.10958 36.2265 18.1133C36.2265 23.5336 33.8457 28.3979 30.0727 31.7173C29.057 27.2924 25.6487 23.7806 21.2824 22.6165C23.5623 21.4593 25.1247 19.0923 25.1247 16.3604C25.1247 12.488 21.9855 9.34878 18.1131 9.34878C14.2407 9.34878 11.1016 12.488 11.1016 16.3604C11.1016 19.0923 12.664 21.4593 14.944 22.6165C10.5777 23.7806 7.16941 27.2924 6.15374 31.7172Z" fill="white"/>
</svg>
